<svg xmlns="http://www.w3.org/2000/svg" xmlns:xlink="http://www.w3.org/1999/xlink" width="800" zoomAndPan="magnify" viewBox="0 0 600 599.999999" height="800" preserveAspectRatio="xMidYMid meet" version="1.0"><defs><filter x="0%" y="0%" width="100%" height="100%" id="792bb72ac8"><feColorMatrix values="0 0 0 0 1 0 0 0 0 1 0 0 0 0 1 0 0 0 1 0" color-interpolation-filters="sRGB"/></filter><clipPath id="6b5a998ca4"><path d="M 89.210938 118.710938 L 111.019531 118.710938 L 111.019531 140.519531 L 89.210938 140.519531 Z M 89.210938 118.710938 " clip-rule="nonzero"/></clipPath><clipPath id="816863dfe8"><path d="M 100.113281 118.710938 C 94.09375 118.710938 89.210938 123.59375 89.210938 129.617188 C 89.210938 135.636719 94.09375 140.519531 100.113281 140.519531 C 106.136719 140.519531 111.019531 135.636719 111.019531 129.617188 C 111.019531 123.59375 106.136719 118.710938 100.113281 118.710938 Z M 100.113281 118.710938 " clip-rule="nonzero"/></clipPath><clipPath id="1128a1aeaa"><path d="M 0.210938 0.710938 L 22.019531 0.710938 L 22.019531 22.519531 L 0.210938 22.519531 Z M 0.210938 0.710938 " clip-rule="nonzero"/></clipPath><clipPath id="ef05b8a792"><path d="M 11.113281 0.710938 C 5.09375 0.710938 0.210938 5.59375 0.210938 11.617188 C 0.210938 17.636719 5.09375 22.519531 11.113281 22.519531 C 17.136719 22.519531 22.019531 17.636719 22.019531 11.617188 C 22.019531 5.59375 17.136719 0.710938 11.113281 0.710938 Z M 11.113281 0.710938 " clip-rule="nonzero"/></clipPath><clipPath id="b3113cee7b"><rect x="0" width="23" y="0" height="23"/></clipPath><clipPath id="4a91a1e8b6"><path d="M 150.128906 118.710938 L 171.9375 118.710938 L 171.9375 140.519531 L 150.128906 140.519531 Z M 150.128906 118.710938 " clip-rule="nonzero"/></clipPath><clipPath id="b38d172a0b"><path d="M 161.03125 118.710938 C 155.011719 118.710938 150.128906 123.59375 150.128906 129.617188 C 150.128906 135.636719 155.011719 140.519531 161.03125 140.519531 C 167.054688 140.519531 171.9375 135.636719 171.9375 129.617188 C 171.9375 123.59375 167.054688 118.710938 161.03125 118.710938 Z M 161.03125 118.710938 " clip-rule="nonzero"/></clipPath><clipPath id="af96b46dac"><path d="M 0.128906 0.710938 L 21.9375 0.710938 L 21.9375 22.519531 L 0.128906 22.519531 Z M 0.128906 0.710938 " clip-rule="nonzero"/></clipPath><clipPath id="d7d20bdc44"><path d="M 11.03125 0.710938 C 5.011719 0.710938 0.128906 5.59375 0.128906 11.617188 C 0.128906 17.636719 5.011719 22.519531 11.03125 22.519531 C 17.054688 22.519531 21.9375 17.636719 21.9375 11.617188 C 21.9375 5.59375 17.054688 0.710938 11.03125 0.710938 Z M 11.03125 0.710938 " clip-rule="nonzero"/></clipPath><clipPath id="82c8b58182"><rect x="0" width="22" y="0" height="23"/></clipPath><clipPath id="3cadf591fe"><path d="M 211.007812 118.710938 L 232.816406 118.710938 L 232.816406 140.519531 L 211.007812 140.519531 Z M 211.007812 118.710938 " clip-rule="nonzero"/></clipPath><clipPath id="fce808b53c"><path d="M 221.914062 118.710938 C 215.890625 118.710938 211.007812 123.59375 211.007812 129.617188 C 211.007812 135.636719 215.890625 140.519531 221.914062 140.519531 C 227.9375 140.519531 232.816406 135.636719 232.816406 129.617188 C 232.816406 123.59375 227.9375 118.710938 221.914062 118.710938 Z M 221.914062 118.710938 " clip-rule="nonzero"/></clipPath><clipPath id="59eb402ded"><path d="M 0.0078125 0.710938 L 21.816406 0.710938 L 21.816406 22.519531 L 0.0078125 22.519531 Z M 0.0078125 0.710938 " clip-rule="nonzero"/></clipPath><clipPath id="36cc320cdb"><path d="M 10.914062 0.710938 C 4.890625 0.710938 0.0078125 5.59375 0.0078125 11.617188 C 0.0078125 17.636719 4.890625 22.519531 10.914062 22.519531 C 16.9375 22.519531 21.816406 17.636719 21.816406 11.617188 C 21.816406 5.59375 16.9375 0.710938 10.914062 0.710938 Z M 10.914062 0.710938 " clip-rule="nonzero"/></clipPath><clipPath id="faa6437e43"><rect x="0" width="22" y="0" height="23"/></clipPath><clipPath id="19fdbd90e7"><path d="M 90.738281 184.28125 L 112.546875 184.28125 L 112.546875 206.089844 L 90.738281 206.089844 Z M 90.738281 184.28125 " clip-rule="nonzero"/></clipPath><clipPath id="d37bcd02dc"><path d="M 101.640625 184.28125 C 95.621094 184.28125 90.738281 189.164062 90.738281 195.1875 C 90.738281 201.207031 95.621094 206.089844 101.640625 206.089844 C 107.664062 206.089844 112.546875 201.207031 112.546875 195.1875 C 112.546875 189.164062 107.664062 184.28125 101.640625 184.28125 Z M 101.640625 184.28125 " clip-rule="nonzero"/></clipPath><clipPath id="39d4fe6e0c"><path d="M 0.738281 0.28125 L 22.546875 0.28125 L 22.546875 22.089844 L 0.738281 22.089844 Z M 0.738281 0.28125 " clip-rule="nonzero"/></clipPath><clipPath id="45906ba968"><path d="M 11.640625 0.28125 C 5.621094 0.28125 0.738281 5.164062 0.738281 11.1875 C 0.738281 17.207031 5.621094 22.089844 11.640625 22.089844 C 17.664062 22.089844 22.546875 17.207031 22.546875 11.1875 C 22.546875 5.164062 17.664062 0.28125 11.640625 0.28125 Z M 11.640625 0.28125 " clip-rule="nonzero"/></clipPath><clipPath id="bf7a14a3b5"><rect x="0" width="23" y="0" height="23"/></clipPath><clipPath id="9819cb3a7e"><path d="M 151.65625 184.28125 L 173.464844 184.28125 L 173.464844 206.089844 L 151.65625 206.089844 Z M 151.65625 184.28125 " clip-rule="nonzero"/></clipPath><clipPath id="f09e51fea2"><path d="M 162.558594 184.28125 C 156.535156 184.28125 151.65625 189.164062 151.65625 195.1875 C 151.65625 201.207031 156.535156 206.089844 162.558594 206.089844 C 168.582031 206.089844 173.464844 201.207031 173.464844 195.1875 C 173.464844 189.164062 168.582031 184.28125 162.558594 184.28125 Z M 162.558594 184.28125 " clip-rule="nonzero"/></clipPath><clipPath id="ea8d792d36"><path d="M 0.65625 0.28125 L 22.464844 0.28125 L 22.464844 22.089844 L 0.65625 22.089844 Z M 0.65625 0.28125 " clip-rule="nonzero"/></clipPath><clipPath id="1d1cac3d33"><path d="M 11.558594 0.28125 C 5.535156 0.28125 0.65625 5.164062 0.65625 11.1875 C 0.65625 17.207031 5.535156 22.089844 11.558594 22.089844 C 17.582031 22.089844 22.464844 17.207031 22.464844 11.1875 C 22.464844 5.164062 17.582031 0.28125 11.558594 0.28125 Z M 11.558594 0.28125 " clip-rule="nonzero"/></clipPath><clipPath id="b6dd44f708"><rect x="0" width="23" y="0" height="23"/></clipPath><clipPath id="7519793ed8"><path d="M 212.535156 184.28125 L 234.34375 184.28125 L 234.34375 206.089844 L 212.535156 206.089844 Z M 212.535156 184.28125 " clip-rule="nonzero"/></clipPath><clipPath id="c34ec11c67"><path d="M 223.441406 184.28125 C 217.417969 184.28125 212.535156 189.164062 212.535156 195.1875 C 212.535156 201.207031 217.417969 206.089844 223.441406 206.089844 C 229.460938 206.089844 234.34375 201.207031 234.34375 195.1875 C 234.34375 189.164062 229.460938 184.28125 223.441406 184.28125 Z M 223.441406 184.28125 " clip-rule="nonzero"/></clipPath><clipPath id="3eb26cf5b6"><path d="M 0.535156 0.28125 L 22.34375 0.28125 L 22.34375 22.089844 L 0.535156 22.089844 Z M 0.535156 0.28125 " clip-rule="nonzero"/></clipPath><clipPath id="dc914bf77b"><path d="M 11.441406 0.28125 C 5.417969 0.28125 0.535156 5.164062 0.535156 11.1875 C 0.535156 17.207031 5.417969 22.089844 11.441406 22.089844 C 17.460938 22.089844 22.34375 17.207031 22.34375 11.1875 C 22.34375 5.164062 17.460938 0.28125 11.441406 0.28125 Z M 11.441406 0.28125 " clip-rule="nonzero"/></clipPath><clipPath id="d6b56d5105"><rect x="0" width="23" y="0" height="23"/></clipPath><clipPath id="7e6c38e97a"><path d="M 92.300781 248.289062 L 114.109375 248.289062 L 114.109375 270.097656 L 92.300781 270.097656 Z M 92.300781 248.289062 " clip-rule="nonzero"/></clipPath><clipPath id="8801f9905a"><path d="M 103.203125 248.289062 C 97.183594 248.289062 92.300781 253.171875 92.300781 259.191406 C 92.300781 265.214844 97.183594 270.097656 103.203125 270.097656 C 109.226562 270.097656 114.109375 265.214844 114.109375 259.191406 C 114.109375 253.171875 109.226562 248.289062 103.203125 248.289062 Z M 103.203125 248.289062 " clip-rule="nonzero"/></clipPath><clipPath id="49d8fac3c3"><path d="M 0.300781 0.289062 L 22.109375 0.289062 L 22.109375 22.097656 L 0.300781 22.097656 Z M 0.300781 0.289062 " clip-rule="nonzero"/></clipPath><clipPath id="9510607ff9"><path d="M 11.203125 0.289062 C 5.183594 0.289062 0.300781 5.171875 0.300781 11.191406 C 0.300781 17.214844 5.183594 22.097656 11.203125 22.097656 C 17.226562 22.097656 22.109375 17.214844 22.109375 11.191406 C 22.109375 5.171875 17.226562 0.289062 11.203125 0.289062 Z M 11.203125 0.289062 " clip-rule="nonzero"/></clipPath><clipPath id="6ca6ef3b44"><rect x="0" width="23" y="0" height="23"/></clipPath><clipPath id="8e6e67aa57"><path d="M 153.21875 248.289062 L 175.027344 248.289062 L 175.027344 270.097656 L 153.21875 270.097656 Z M 153.21875 248.289062 " clip-rule="nonzero"/></clipPath><clipPath id="13a779511f"><path d="M 164.121094 248.289062 C 158.101562 248.289062 153.21875 253.171875 153.21875 259.191406 C 153.21875 265.214844 158.101562 270.097656 164.121094 270.097656 C 170.144531 270.097656 175.027344 265.214844 175.027344 259.191406 C 175.027344 253.171875 170.144531 248.289062 164.121094 248.289062 Z M 164.121094 248.289062 " clip-rule="nonzero"/></clipPath><clipPath id="9f066006af"><path d="M 0.21875 0.289062 L 22.027344 0.289062 L 22.027344 22.097656 L 0.21875 22.097656 Z M 0.21875 0.289062 " clip-rule="nonzero"/></clipPath><clipPath id="e201ecbc45"><path d="M 11.121094 0.289062 C 5.101562 0.289062 0.21875 5.171875 0.21875 11.191406 C 0.21875 17.214844 5.101562 22.097656 11.121094 22.097656 C 17.144531 22.097656 22.027344 17.214844 22.027344 11.191406 C 22.027344 5.171875 17.144531 0.289062 11.121094 0.289062 Z M 11.121094 0.289062 " clip-rule="nonzero"/></clipPath><clipPath id="f86fa4183f"><rect x="0" width="23" y="0" height="23"/></clipPath><clipPath id="b2fbdb3f1f"><path d="M 214.097656 248.289062 L 235.90625 248.289062 L 235.90625 270.097656 L 214.097656 270.097656 Z M 214.097656 248.289062 " clip-rule="nonzero"/></clipPath><clipPath id="9408296ba2"><path d="M 225.003906 248.289062 C 218.980469 248.289062 214.097656 253.171875 214.097656 259.191406 C 214.097656 265.214844 218.980469 270.097656 225.003906 270.097656 C 231.027344 270.097656 235.90625 265.214844 235.90625 259.191406 C 235.90625 253.171875 231.027344 248.289062 225.003906 248.289062 Z M 225.003906 248.289062 " clip-rule="nonzero"/></clipPath><clipPath id="2e1ec037df"><path d="M 0.0976562 0.289062 L 21.90625 0.289062 L 21.90625 22.097656 L 0.0976562 22.097656 Z M 0.0976562 0.289062 " clip-rule="nonzero"/></clipPath><clipPath id="6cf0a93bfa"><path d="M 11.003906 0.289062 C 4.980469 0.289062 0.0976562 5.171875 0.0976562 11.191406 C 0.0976562 17.214844 4.980469 22.097656 11.003906 22.097656 C 17.027344 22.097656 21.90625 17.214844 21.90625 11.191406 C 21.90625 5.171875 17.027344 0.289062 11.003906 0.289062 Z M 11.003906 0.289062 " clip-rule="nonzero"/></clipPath><clipPath id="96bcba90ca"><rect x="0" width="22" y="0" height="23"/></clipPath><clipPath id="34748bd28d"><path d="M 357.101562 117.929688 L 378.910156 117.929688 L 378.910156 139.738281 L 357.101562 139.738281 Z M 357.101562 117.929688 " clip-rule="nonzero"/></clipPath><clipPath id="5d96e2376d"><path d="M 368.007812 117.929688 C 361.984375 117.929688 357.101562 122.8125 357.101562 128.835938 C 357.101562 134.855469 361.984375 139.738281 368.007812 139.738281 C 374.03125 139.738281 378.910156 134.855469 378.910156 128.835938 C 378.910156 122.8125 374.03125 117.929688 368.007812 117.929688 Z M 368.007812 117.929688 " clip-rule="nonzero"/></clipPath><clipPath id="03b45cebf1"><path d="M 0.101562 0.929688 L 21.910156 0.929688 L 21.910156 22.738281 L 0.101562 22.738281 Z M 0.101562 0.929688 " clip-rule="nonzero"/></clipPath><clipPath id="4d959d5061"><path d="M 11.007812 0.929688 C 4.984375 0.929688 0.101562 5.8125 0.101562 11.835938 C 0.101562 17.855469 4.984375 22.738281 11.007812 22.738281 C 17.03125 22.738281 21.910156 17.855469 21.910156 11.835938 C 21.910156 5.8125 17.03125 0.929688 11.007812 0.929688 Z M 11.007812 0.929688 " clip-rule="nonzero"/></clipPath><clipPath id="769d4e3db9"><rect x="0" width="22" y="0" height="23"/></clipPath><clipPath id="56b0fbe755"><path d="M 418.019531 117.929688 L 439.828125 117.929688 L 439.828125 139.738281 L 418.019531 139.738281 Z M 418.019531 117.929688 " clip-rule="nonzero"/></clipPath><clipPath id="8f6dded9c2"><path d="M 428.925781 117.929688 C 422.902344 117.929688 418.019531 122.8125 418.019531 128.835938 C 418.019531 134.855469 422.902344 139.738281 428.925781 139.738281 C 434.945312 139.738281 439.828125 134.855469 439.828125 128.835938 C 439.828125 122.8125 434.945312 117.929688 428.925781 117.929688 Z M 428.925781 117.929688 " clip-rule="nonzero"/></clipPath><clipPath id="f8c2b13fdb"><path d="M 0.0195312 0.929688 L 21.828125 0.929688 L 21.828125 22.738281 L 0.0195312 22.738281 Z M 0.0195312 0.929688 " clip-rule="nonzero"/></clipPath><clipPath id="20fb008b86"><path d="M 10.925781 0.929688 C 4.902344 0.929688 0.0195312 5.8125 0.0195312 11.835938 C 0.0195312 17.855469 4.902344 22.738281 10.925781 22.738281 C 16.945312 22.738281 21.828125 17.855469 21.828125 11.835938 C 21.828125 5.8125 16.945312 0.929688 10.925781 0.929688 Z M 10.925781 0.929688 " clip-rule="nonzero"/></clipPath><clipPath id="c7f64abf39"><rect x="0" width="22" y="0" height="23"/></clipPath><clipPath id="960f697257"><path d="M 478.902344 117.929688 L 500.710938 117.929688 L 500.710938 139.738281 L 478.902344 139.738281 Z M 478.902344 117.929688 " clip-rule="nonzero"/></clipPath><clipPath id="cdef1ec6bf"><path d="M 489.804688 117.929688 C 483.785156 117.929688 478.902344 122.8125 478.902344 128.835938 C 478.902344 134.855469 483.785156 139.738281 489.804688 139.738281 C 495.828125 139.738281 500.710938 134.855469 500.710938 128.835938 C 500.710938 122.8125 495.828125 117.929688 489.804688 117.929688 Z M 489.804688 117.929688 " clip-rule="nonzero"/></clipPath><clipPath id="bc98bf3880"><path d="M 0.902344 0.929688 L 22.710938 0.929688 L 22.710938 22.738281 L 0.902344 22.738281 Z M 0.902344 0.929688 " clip-rule="nonzero"/></clipPath><clipPath id="4d4a2bbe01"><path d="M 11.804688 0.929688 C 5.785156 0.929688 0.902344 5.8125 0.902344 11.835938 C 0.902344 17.855469 5.785156 22.738281 11.804688 22.738281 C 17.828125 22.738281 22.710938 17.855469 22.710938 11.835938 C 22.710938 5.8125 17.828125 0.929688 11.804688 0.929688 Z M 11.804688 0.929688 " clip-rule="nonzero"/></clipPath><clipPath id="a7eebcd56d"><rect x="0" width="23" y="0" height="23"/></clipPath><clipPath id="6ef676842f"><path d="M 358.628906 183.5 L 380.4375 183.5 L 380.4375 205.308594 L 358.628906 205.308594 Z M 358.628906 183.5 " clip-rule="nonzero"/></clipPath><clipPath id="ba9a9b2081"><path d="M 369.535156 183.5 C 363.511719 183.5 358.628906 188.382812 358.628906 194.40625 C 358.628906 200.425781 363.511719 205.308594 369.535156 205.308594 C 375.558594 205.308594 380.4375 200.425781 380.4375 194.40625 C 380.4375 188.382812 375.558594 183.5 369.535156 183.5 Z M 369.535156 183.5 " clip-rule="nonzero"/></clipPath><clipPath id="7cfa6ea801"><path d="M 0.628906 0.5 L 22.4375 0.5 L 22.4375 22.308594 L 0.628906 22.308594 Z M 0.628906 0.5 " clip-rule="nonzero"/></clipPath><clipPath id="32903b5040"><path d="M 11.535156 0.5 C 5.511719 0.5 0.628906 5.382812 0.628906 11.40625 C 0.628906 17.425781 5.511719 22.308594 11.535156 22.308594 C 17.558594 22.308594 22.4375 17.425781 22.4375 11.40625 C 22.4375 5.382812 17.558594 0.5 11.535156 0.5 Z M 11.535156 0.5 " clip-rule="nonzero"/></clipPath><clipPath id="8660bf96df"><rect x="0" width="23" y="0" height="23"/></clipPath><clipPath id="853e14dff6"><path d="M 419.546875 183.5 L 441.355469 183.5 L 441.355469 205.308594 L 419.546875 205.308594 Z M 419.546875 183.5 " clip-rule="nonzero"/></clipPath><clipPath id="d3d97df3ad"><path d="M 430.453125 183.5 C 424.429688 183.5 419.546875 188.382812 419.546875 194.40625 C 419.546875 200.425781 424.429688 205.308594 430.453125 205.308594 C 436.472656 205.308594 441.355469 200.425781 441.355469 194.40625 C 441.355469 188.382812 436.472656 183.5 430.453125 183.5 Z M 430.453125 183.5 " clip-rule="nonzero"/></clipPath><clipPath id="12f07ddd69"><path d="M 0.546875 0.5 L 22.355469 0.5 L 22.355469 22.308594 L 0.546875 22.308594 Z M 0.546875 0.5 " clip-rule="nonzero"/></clipPath><clipPath id="1b8f82586c"><path d="M 11.453125 0.5 C 5.429688 0.5 0.546875 5.382812 0.546875 11.40625 C 0.546875 17.425781 5.429688 22.308594 11.453125 22.308594 C 17.472656 22.308594 22.355469 17.425781 22.355469 11.40625 C 22.355469 5.382812 17.472656 0.5 11.453125 0.5 Z M 11.453125 0.5 " clip-rule="nonzero"/></clipPath><clipPath id="1336127a32"><rect x="0" width="23" y="0" height="23"/></clipPath><clipPath id="b2f6d3f91b"><path d="M 480.429688 183.5 L 502.238281 183.5 L 502.238281 205.308594 L 480.429688 205.308594 Z M 480.429688 183.5 " clip-rule="nonzero"/></clipPath><clipPath id="26df985e18"><path d="M 491.332031 183.5 C 485.3125 183.5 480.429688 188.382812 480.429688 194.40625 C 480.429688 200.425781 485.3125 205.308594 491.332031 205.308594 C 497.355469 205.308594 502.238281 200.425781 502.238281 194.40625 C 502.238281 188.382812 497.355469 183.5 491.332031 183.5 Z M 491.332031 183.5 " clip-rule="nonzero"/></clipPath><clipPath id="297a5715c3"><path d="M 0.429688 0.5 L 22.238281 0.5 L 22.238281 22.308594 L 0.429688 22.308594 Z M 0.429688 0.5 " clip-rule="nonzero"/></clipPath><clipPath id="2680408659"><path d="M 11.332031 0.5 C 5.3125 0.5 0.429688 5.382812 0.429688 11.40625 C 0.429688 17.425781 5.3125 22.308594 11.332031 22.308594 C 17.355469 22.308594 22.238281 17.425781 22.238281 11.40625 C 22.238281 5.382812 17.355469 0.5 11.332031 0.5 Z M 11.332031 0.5 " clip-rule="nonzero"/></clipPath><clipPath id="ef2ac8e513"><rect x="0" width="23" y="0" height="23"/></clipPath><clipPath id="dca88f66c9"><path d="M 360.191406 247.507812 L 382 247.507812 L 382 269.316406 L 360.191406 269.316406 Z M 360.191406 247.507812 " clip-rule="nonzero"/></clipPath><clipPath id="5993ad369a"><path d="M 371.097656 247.507812 C 365.074219 247.507812 360.191406 252.390625 360.191406 258.410156 C 360.191406 264.433594 365.074219 269.316406 371.097656 269.316406 C 377.121094 269.316406 382 264.433594 382 258.410156 C 382 252.390625 377.121094 247.507812 371.097656 247.507812 Z M 371.097656 247.507812 " clip-rule="nonzero"/></clipPath><clipPath id="a249846332"><path d="M 0.191406 0.507812 L 22 0.507812 L 22 22.316406 L 0.191406 22.316406 Z M 0.191406 0.507812 " clip-rule="nonzero"/></clipPath><clipPath id="d9f74b5d5c"><path d="M 11.097656 0.507812 C 5.074219 0.507812 0.191406 5.390625 0.191406 11.410156 C 0.191406 17.433594 5.074219 22.316406 11.097656 22.316406 C 17.121094 22.316406 22 17.433594 22 11.410156 C 22 5.390625 17.121094 0.507812 11.097656 0.507812 Z M 11.097656 0.507812 " clip-rule="nonzero"/></clipPath><clipPath id="ee404f9320"><rect x="0" width="22" y="0" height="23"/></clipPath><clipPath id="bd701b1427"><path d="M 421.109375 247.507812 L 442.917969 247.507812 L 442.917969 269.316406 L 421.109375 269.316406 Z M 421.109375 247.507812 " clip-rule="nonzero"/></clipPath><clipPath id="341f9786af"><path d="M 432.015625 247.507812 C 425.992188 247.507812 421.109375 252.390625 421.109375 258.410156 C 421.109375 264.433594 425.992188 269.316406 432.015625 269.316406 C 438.035156 269.316406 442.917969 264.433594 442.917969 258.410156 C 442.917969 252.390625 438.035156 247.507812 432.015625 247.507812 Z M 432.015625 247.507812 " clip-rule="nonzero"/></clipPath><clipPath id="c53d67a1fa"><path d="M 0.109375 0.507812 L 21.917969 0.507812 L 21.917969 22.316406 L 0.109375 22.316406 Z M 0.109375 0.507812 " clip-rule="nonzero"/></clipPath><clipPath id="581ac0ee58"><path d="M 11.015625 0.507812 C 4.992188 0.507812 0.109375 5.390625 0.109375 11.410156 C 0.109375 17.433594 4.992188 22.316406 11.015625 22.316406 C 17.035156 22.316406 21.917969 17.433594 21.917969 11.410156 C 21.917969 5.390625 17.035156 0.507812 11.015625 0.507812 Z M 11.015625 0.507812 " clip-rule="nonzero"/></clipPath><clipPath id="1279093cd4"><rect x="0" width="22" y="0" height="23"/></clipPath><clipPath id="482abe8c04"><path d="M 481.992188 247.507812 L 503.800781 247.507812 L 503.800781 269.316406 L 481.992188 269.316406 Z M 481.992188 247.507812 " clip-rule="nonzero"/></clipPath><clipPath id="9466e7a1c4"><path d="M 492.894531 247.507812 C 486.875 247.507812 481.992188 252.390625 481.992188 258.410156 C 481.992188 264.433594 486.875 269.316406 492.894531 269.316406 C 498.917969 269.316406 503.800781 264.433594 503.800781 258.410156 C 503.800781 252.390625 498.917969 247.507812 492.894531 247.507812 Z M 492.894531 247.507812 " clip-rule="nonzero"/></clipPath><clipPath id="2461e246f9"><path d="M 0.992188 0.507812 L 22.800781 0.507812 L 22.800781 22.316406 L 0.992188 22.316406 Z M 0.992188 0.507812 " clip-rule="nonzero"/></clipPath><clipPath id="7197b75807"><path d="M 11.894531 0.507812 C 5.875 0.507812 0.992188 5.390625 0.992188 11.410156 C 0.992188 17.433594 5.875 22.316406 11.894531 22.316406 C 17.917969 22.316406 22.800781 17.433594 22.800781 11.410156 C 22.800781 5.390625 17.917969 0.507812 11.894531 0.507812 Z M 11.894531 0.507812 " clip-rule="nonzero"/></clipPath><clipPath id="696c37c6a2"><rect x="0" width="23" y="0" height="23"/></clipPath><mask id="3f0fe40ae2"><g filter="url(#792bb72ac8)"><rect x="-60" width="720" fill="#000000" y="-60" height="719.999999" fill-opacity="0.53"/></g></mask><clipPath id="30e36fdb99"><path d="M 0.601562 0.878906 L 40.679688 0.878906 L 40.679688 30.160156 L 0.601562 30.160156 Z M 0.601562 0.878906 " clip-rule="nonzero"/></clipPath><clipPath id="21b7968fb5"><rect x="0" width="41" y="0" height="31"/></clipPath><mask id="df4ecd9d4e"><g filter="url(#792bb72ac8)"><rect x="-60" width="720" fill="#000000" y="-60" height="719.999999" fill-opacity="0.53"/></g></mask><clipPath id="f5a9c2b38f"><path d="M 0.761719 0.238281 L 41.078125 0.238281 L 41.078125 28.800781 L 0.761719 28.800781 Z M 0.761719 0.238281 " clip-rule="nonzero"/></clipPath><clipPath id="f378db970a"><rect x="0" width="42" y="0" height="29"/></clipPath><mask id="c9f31469b1"><g filter="url(#792bb72ac8)"><rect x="-60" width="720" fill="#000000" y="-60" height="719.999999" fill-opacity="0.53"/></g></mask><clipPath id="b4fc3fa3d7"><path d="M 0.238281 0.28125 L 30.480469 0.28125 L 30.480469 31.71875 L 0.238281 31.71875 Z M 0.238281 0.28125 " clip-rule="nonzero"/></clipPath><clipPath id="e03019f892"><rect x="0" width="31" y="0" height="32"/></clipPath><mask id="1af098026e"><g filter="url(#792bb72ac8)"><rect x="-60" width="720" fill="#000000" y="-60" height="719.999999" fill-opacity="0.53"/></g></mask><clipPath id="349aeff2b2"><path d="M 0.761719 0.640625 L 31.238281 0.640625 L 31.238281 29.921875 L 0.761719 29.921875 Z M 0.761719 0.640625 " clip-rule="nonzero"/></clipPath><clipPath id="e7cd41b696"><rect x="0" width="32" y="0" height="30"/></clipPath><clipPath id="a3a0ccb54d"><path d="M 88.210938 338.625 L 110.019531 338.625 L 110.019531 360.433594 L 88.210938 360.433594 Z M 88.210938 338.625 " clip-rule="nonzero"/></clipPath><clipPath id="7eff985d7f"><path d="M 99.117188 338.625 C 93.09375 338.625 88.210938 343.507812 88.210938 349.53125 C 88.210938 355.554688 93.09375 360.433594 99.117188 360.433594 C 105.136719 360.433594 110.019531 355.554688 110.019531 349.53125 C 110.019531 343.507812 105.136719 338.625 99.117188 338.625 Z M 99.117188 338.625 " clip-rule="nonzero"/></clipPath><clipPath id="812ea0676d"><path d="M 0.210938 0.625 L 22.019531 0.625 L 22.019531 22.433594 L 0.210938 22.433594 Z M 0.210938 0.625 " clip-rule="nonzero"/></clipPath><clipPath id="90b5c6979f"><path d="M 11.117188 0.625 C 5.09375 0.625 0.210938 5.507812 0.210938 11.53125 C 0.210938 17.554688 5.09375 22.433594 11.117188 22.433594 C 17.136719 22.433594 22.019531 17.554688 22.019531 11.53125 C 22.019531 5.507812 17.136719 0.625 11.117188 0.625 Z M 11.117188 0.625 " clip-rule="nonzero"/></clipPath><clipPath id="acd8525dd5"><rect x="0" width="23" y="0" height="23"/></clipPath><clipPath id="5322f42d55"><path d="M 149.128906 338.625 L 170.9375 338.625 L 170.9375 360.433594 L 149.128906 360.433594 Z M 149.128906 338.625 " clip-rule="nonzero"/></clipPath><clipPath id="f0c23e39e5"><path d="M 160.03125 338.625 C 154.011719 338.625 149.128906 343.507812 149.128906 349.53125 C 149.128906 355.554688 154.011719 360.433594 160.03125 360.433594 C 166.054688 360.433594 170.9375 355.554688 170.9375 349.53125 C 170.9375 343.507812 166.054688 338.625 160.03125 338.625 Z M 160.03125 338.625 " clip-rule="nonzero"/></clipPath><clipPath id="71625b5398"><path d="M 0.128906 0.625 L 21.9375 0.625 L 21.9375 22.433594 L 0.128906 22.433594 Z M 0.128906 0.625 " clip-rule="nonzero"/></clipPath><clipPath id="074c825df5"><path d="M 11.03125 0.625 C 5.011719 0.625 0.128906 5.507812 0.128906 11.53125 C 0.128906 17.554688 5.011719 22.433594 11.03125 22.433594 C 17.054688 22.433594 21.9375 17.554688 21.9375 11.53125 C 21.9375 5.507812 17.054688 0.625 11.03125 0.625 Z M 11.03125 0.625 " clip-rule="nonzero"/></clipPath><clipPath id="32036db6a1"><rect x="0" width="22" y="0" height="23"/></clipPath><clipPath id="eb482b8843"><path d="M 210.007812 338.625 L 231.816406 338.625 L 231.816406 360.433594 L 210.007812 360.433594 Z M 210.007812 338.625 " clip-rule="nonzero"/></clipPath><clipPath id="69bf685a9e"><path d="M 220.914062 338.625 C 214.890625 338.625 210.007812 343.507812 210.007812 349.53125 C 210.007812 355.554688 214.890625 360.433594 220.914062 360.433594 C 226.9375 360.433594 231.816406 355.554688 231.816406 349.53125 C 231.816406 343.507812 226.9375 338.625 220.914062 338.625 Z M 220.914062 338.625 " clip-rule="nonzero"/></clipPath><clipPath id="5ec2dba46a"><path d="M 0.0078125 0.625 L 21.816406 0.625 L 21.816406 22.433594 L 0.0078125 22.433594 Z M 0.0078125 0.625 " clip-rule="nonzero"/></clipPath><clipPath id="3cf3908819"><path d="M 10.914062 0.625 C 4.890625 0.625 0.0078125 5.507812 0.0078125 11.53125 C 0.0078125 17.554688 4.890625 22.433594 10.914062 22.433594 C 16.9375 22.433594 21.816406 17.554688 21.816406 11.53125 C 21.816406 5.507812 16.9375 0.625 10.914062 0.625 Z M 10.914062 0.625 " clip-rule="nonzero"/></clipPath><clipPath id="51341d08ee"><rect x="0" width="22" y="0" height="23"/></clipPath><clipPath id="a582da94cc"><path d="M 89.738281 404.195312 L 111.546875 404.195312 L 111.546875 426.003906 L 89.738281 426.003906 Z M 89.738281 404.195312 " clip-rule="nonzero"/></clipPath><clipPath id="c3fb1d11ce"><path d="M 100.640625 404.195312 C 94.621094 404.195312 89.738281 409.078125 89.738281 415.101562 C 89.738281 421.121094 94.621094 426.003906 100.640625 426.003906 C 106.664062 426.003906 111.546875 421.121094 111.546875 415.101562 C 111.546875 409.078125 106.664062 404.195312 100.640625 404.195312 Z M 100.640625 404.195312 " clip-rule="nonzero"/></clipPath><clipPath id="c0016f4e21"><path d="M 0.738281 0.195312 L 22.546875 0.195312 L 22.546875 22.003906 L 0.738281 22.003906 Z M 0.738281 0.195312 " clip-rule="nonzero"/></clipPath><clipPath id="83c875d472"><path d="M 11.640625 0.195312 C 5.621094 0.195312 0.738281 5.078125 0.738281 11.101562 C 0.738281 17.121094 5.621094 22.003906 11.640625 22.003906 C 17.664062 22.003906 22.546875 17.121094 22.546875 11.101562 C 22.546875 5.078125 17.664062 0.195312 11.640625 0.195312 Z M 11.640625 0.195312 " clip-rule="nonzero"/></clipPath><clipPath id="8e035db354"><rect x="0" width="23" y="0" height="23"/></clipPath><clipPath id="3dc350929d"><path d="M 150.65625 404.195312 L 172.464844 404.195312 L 172.464844 426.003906 L 150.65625 426.003906 Z M 150.65625 404.195312 " clip-rule="nonzero"/></clipPath><clipPath id="21d9c5db7b"><path d="M 161.558594 404.195312 C 155.539062 404.195312 150.65625 409.078125 150.65625 415.101562 C 150.65625 421.121094 155.539062 426.003906 161.558594 426.003906 C 167.582031 426.003906 172.464844 421.121094 172.464844 415.101562 C 172.464844 409.078125 167.582031 404.195312 161.558594 404.195312 Z M 161.558594 404.195312 " clip-rule="nonzero"/></clipPath><clipPath id="b8937cc01d"><path d="M 0.65625 0.195312 L 22.464844 0.195312 L 22.464844 22.003906 L 0.65625 22.003906 Z M 0.65625 0.195312 " clip-rule="nonzero"/></clipPath><clipPath id="bcbc3fe897"><path d="M 11.558594 0.195312 C 5.539062 0.195312 0.65625 5.078125 0.65625 11.101562 C 0.65625 17.121094 5.539062 22.003906 11.558594 22.003906 C 17.582031 22.003906 22.464844 17.121094 22.464844 11.101562 C 22.464844 5.078125 17.582031 0.195312 11.558594 0.195312 Z M 11.558594 0.195312 " clip-rule="nonzero"/></clipPath><clipPath id="8270fa72c9"><rect x="0" width="23" y="0" height="23"/></clipPath><clipPath id="67cbc8021f"><path d="M 211.535156 404.195312 L 233.34375 404.195312 L 233.34375 426.003906 L 211.535156 426.003906 Z M 211.535156 404.195312 " clip-rule="nonzero"/></clipPath><clipPath id="020f380c66"><path d="M 222.441406 404.195312 C 216.417969 404.195312 211.535156 409.078125 211.535156 415.101562 C 211.535156 421.121094 216.417969 426.003906 222.441406 426.003906 C 228.464844 426.003906 233.34375 421.121094 233.34375 415.101562 C 233.34375 409.078125 228.464844 404.195312 222.441406 404.195312 Z M 222.441406 404.195312 " clip-rule="nonzero"/></clipPath><clipPath id="c90bc19302"><path d="M 0.535156 0.195312 L 22.34375 0.195312 L 22.34375 22.003906 L 0.535156 22.003906 Z M 0.535156 0.195312 " clip-rule="nonzero"/></clipPath><clipPath id="714a554281"><path d="M 11.441406 0.195312 C 5.417969 0.195312 0.535156 5.078125 0.535156 11.101562 C 0.535156 17.121094 5.417969 22.003906 11.441406 22.003906 C 17.464844 22.003906 22.34375 17.121094 22.34375 11.101562 C 22.34375 5.078125 17.464844 0.195312 11.441406 0.195312 Z M 11.441406 0.195312 " clip-rule="nonzero"/></clipPath><clipPath id="b9550d46a7"><rect x="0" width="23" y="0" height="23"/></clipPath><clipPath id="3650f47436"><path d="M 91.300781 468.203125 L 113.109375 468.203125 L 113.109375 490.011719 L 91.300781 490.011719 Z M 91.300781 468.203125 " clip-rule="nonzero"/></clipPath><clipPath id="26c82b4252"><path d="M 102.207031 468.203125 C 96.183594 468.203125 91.300781 473.085938 91.300781 479.109375 C 91.300781 485.128906 96.183594 490.011719 102.207031 490.011719 C 108.226562 490.011719 113.109375 485.128906 113.109375 479.109375 C 113.109375 473.085938 108.226562 468.203125 102.207031 468.203125 Z M 102.207031 468.203125 " clip-rule="nonzero"/></clipPath><clipPath id="2e1badea85"><path d="M 0.300781 0.203125 L 22.109375 0.203125 L 22.109375 22.011719 L 0.300781 22.011719 Z M 0.300781 0.203125 " clip-rule="nonzero"/></clipPath><clipPath id="6563b32069"><path d="M 11.207031 0.203125 C 5.183594 0.203125 0.300781 5.085938 0.300781 11.109375 C 0.300781 17.128906 5.183594 22.011719 11.207031 22.011719 C 17.226562 22.011719 22.109375 17.128906 22.109375 11.109375 C 22.109375 5.085938 17.226562 0.203125 11.207031 0.203125 Z M 11.207031 0.203125 " clip-rule="nonzero"/></clipPath><clipPath id="6000355a0f"><rect x="0" width="23" y="0" height="23"/></clipPath><clipPath id="d30da000e8"><path d="M 152.21875 468.203125 L 174.027344 468.203125 L 174.027344 490.011719 L 152.21875 490.011719 Z M 152.21875 468.203125 " clip-rule="nonzero"/></clipPath><clipPath id="0e9ff5f6ee"><path d="M 163.121094 468.203125 C 157.101562 468.203125 152.21875 473.085938 152.21875 479.109375 C 152.21875 485.128906 157.101562 490.011719 163.121094 490.011719 C 169.144531 490.011719 174.027344 485.128906 174.027344 479.109375 C 174.027344 473.085938 169.144531 468.203125 163.121094 468.203125 Z M 163.121094 468.203125 " clip-rule="nonzero"/></clipPath><clipPath id="1617a7929b"><path d="M 0.21875 0.203125 L 22.027344 0.203125 L 22.027344 22.011719 L 0.21875 22.011719 Z M 0.21875 0.203125 " clip-rule="nonzero"/></clipPath><clipPath id="488a808a6e"><path d="M 11.121094 0.203125 C 5.101562 0.203125 0.21875 5.085938 0.21875 11.109375 C 0.21875 17.128906 5.101562 22.011719 11.121094 22.011719 C 17.144531 22.011719 22.027344 17.128906 22.027344 11.109375 C 22.027344 5.085938 17.144531 0.203125 11.121094 0.203125 Z M 11.121094 0.203125 " clip-rule="nonzero"/></clipPath><clipPath id="0219ed6ce2"><rect x="0" width="23" y="0" height="23"/></clipPath><clipPath id="088f141b85"><path d="M 213.097656 468.203125 L 234.90625 468.203125 L 234.90625 490.011719 L 213.097656 490.011719 Z M 213.097656 468.203125 " clip-rule="nonzero"/></clipPath><clipPath id="62b8cab4d3"><path d="M 224.003906 468.203125 C 217.980469 468.203125 213.097656 473.085938 213.097656 479.109375 C 213.097656 485.128906 217.980469 490.011719 224.003906 490.011719 C 230.027344 490.011719 234.90625 485.128906 234.90625 479.109375 C 234.90625 473.085938 230.027344 468.203125 224.003906 468.203125 Z M 224.003906 468.203125 " clip-rule="nonzero"/></clipPath><clipPath id="8f7e762b4f"><path d="M 0.0976562 0.203125 L 21.90625 0.203125 L 21.90625 22.011719 L 0.0976562 22.011719 Z M 0.0976562 0.203125 " clip-rule="nonzero"/></clipPath><clipPath id="3e35fd262a"><path d="M 11.003906 0.203125 C 4.980469 0.203125 0.0976562 5.085938 0.0976562 11.109375 C 0.0976562 17.128906 4.980469 22.011719 11.003906 22.011719 C 17.027344 22.011719 21.90625 17.128906 21.90625 11.109375 C 21.90625 5.085938 17.027344 0.203125 11.003906 0.203125 Z M 11.003906 0.203125 " clip-rule="nonzero"/></clipPath><clipPath id="1721cc6648"><rect x="0" width="22" y="0" height="23"/></clipPath><clipPath id="3eee611e3e"><path d="M 356.105469 337.84375 L 377.914062 337.84375 L 377.914062 359.652344 L 356.105469 359.652344 Z M 356.105469 337.84375 " clip-rule="nonzero"/></clipPath><clipPath id="6d11d174d4"><path d="M 367.007812 337.84375 C 360.984375 337.84375 356.105469 342.726562 356.105469 348.75 C 356.105469 354.773438 360.984375 359.652344 367.007812 359.652344 C 373.03125 359.652344 377.914062 354.773438 377.914062 348.75 C 377.914062 342.726562 373.03125 337.84375 367.007812 337.84375 Z M 367.007812 337.84375 " clip-rule="nonzero"/></clipPath><clipPath id="3e92391752"><path d="M 0.105469 0.84375 L 21.914062 0.84375 L 21.914062 22.652344 L 0.105469 22.652344 Z M 0.105469 0.84375 " clip-rule="nonzero"/></clipPath><clipPath id="60a954d8a8"><path d="M 11.007812 0.84375 C 4.984375 0.84375 0.105469 5.726562 0.105469 11.75 C 0.105469 17.773438 4.984375 22.652344 11.007812 22.652344 C 17.03125 22.652344 21.914062 17.773438 21.914062 11.75 C 21.914062 5.726562 17.03125 0.84375 11.007812 0.84375 Z M 11.007812 0.84375 " clip-rule="nonzero"/></clipPath><clipPath id="7433187c5c"><rect x="0" width="22" y="0" height="23"/></clipPath><clipPath id="32bcab74c0"><path d="M 417.019531 337.84375 L 438.828125 337.84375 L 438.828125 359.652344 L 417.019531 359.652344 Z M 417.019531 337.84375 " clip-rule="nonzero"/></clipPath><clipPath id="89c4bf8608"><path d="M 427.925781 337.84375 C 421.902344 337.84375 417.019531 342.726562 417.019531 348.75 C 417.019531 354.773438 421.902344 359.652344 427.925781 359.652344 C 433.949219 359.652344 438.828125 354.773438 438.828125 348.75 C 438.828125 342.726562 433.949219 337.84375 427.925781 337.84375 Z M 427.925781 337.84375 " clip-rule="nonzero"/></clipPath><clipPath id="56ceec8982"><path d="M 0.0195312 0.84375 L 21.828125 0.84375 L 21.828125 22.652344 L 0.0195312 22.652344 Z M 0.0195312 0.84375 " clip-rule="nonzero"/></clipPath><clipPath id="1e5c5f83de"><path d="M 10.925781 0.84375 C 4.902344 0.84375 0.0195312 5.726562 0.0195312 11.75 C 0.0195312 17.773438 4.902344 22.652344 10.925781 22.652344 C 16.949219 22.652344 21.828125 17.773438 21.828125 11.75 C 21.828125 5.726562 16.949219 0.84375 10.925781 0.84375 Z M 10.925781 0.84375 " clip-rule="nonzero"/></clipPath><clipPath id="bb0e9a196c"><rect x="0" width="22" y="0" height="23"/></clipPath><clipPath id="39175bfa93"><path d="M 477.902344 337.84375 L 499.710938 337.84375 L 499.710938 359.652344 L 477.902344 359.652344 Z M 477.902344 337.84375 " clip-rule="nonzero"/></clipPath><clipPath id="2fedfb8da7"><path d="M 488.804688 337.84375 C 482.785156 337.84375 477.902344 342.726562 477.902344 348.75 C 477.902344 354.773438 482.785156 359.652344 488.804688 359.652344 C 494.828125 359.652344 499.710938 354.773438 499.710938 348.75 C 499.710938 342.726562 494.828125 337.84375 488.804688 337.84375 Z M 488.804688 337.84375 " clip-rule="nonzero"/></clipPath><clipPath id="6ef918d3ff"><path d="M 0.902344 0.84375 L 22.710938 0.84375 L 22.710938 22.652344 L 0.902344 22.652344 Z M 0.902344 0.84375 " clip-rule="nonzero"/></clipPath><clipPath id="c7f7687089"><path d="M 11.804688 0.84375 C 5.785156 0.84375 0.902344 5.726562 0.902344 11.75 C 0.902344 17.773438 5.785156 22.652344 11.804688 22.652344 C 17.828125 22.652344 22.710938 17.773438 22.710938 11.75 C 22.710938 5.726562 17.828125 0.84375 11.804688 0.84375 Z M 11.804688 0.84375 " clip-rule="nonzero"/></clipPath><clipPath id="78aa91dcd8"><rect x="0" width="23" y="0" height="23"/></clipPath><clipPath id="a51360af57"><path d="M 357.628906 403.414062 L 379.4375 403.414062 L 379.4375 425.222656 L 357.628906 425.222656 Z M 357.628906 403.414062 " clip-rule="nonzero"/></clipPath><clipPath id="123602ac80"><path d="M 368.535156 403.414062 C 362.511719 403.414062 357.628906 408.296875 357.628906 414.320312 C 357.628906 420.339844 362.511719 425.222656 368.535156 425.222656 C 374.558594 425.222656 379.4375 420.339844 379.4375 414.320312 C 379.4375 408.296875 374.558594 403.414062 368.535156 403.414062 Z M 368.535156 403.414062 " clip-rule="nonzero"/></clipPath><clipPath id="1f5fbf20c0"><path d="M 0.628906 0.414062 L 22.4375 0.414062 L 22.4375 22.222656 L 0.628906 22.222656 Z M 0.628906 0.414062 " clip-rule="nonzero"/></clipPath><clipPath id="2075c7a526"><path d="M 11.535156 0.414062 C 5.511719 0.414062 0.628906 5.296875 0.628906 11.320312 C 0.628906 17.339844 5.511719 22.222656 11.535156 22.222656 C 17.558594 22.222656 22.4375 17.339844 22.4375 11.320312 C 22.4375 5.296875 17.558594 0.414062 11.535156 0.414062 Z M 11.535156 0.414062 " clip-rule="nonzero"/></clipPath><clipPath id="35b772b7c6"><rect x="0" width="23" y="0" height="23"/></clipPath><clipPath id="139f3acaa4"><path d="M 418.546875 403.414062 L 440.355469 403.414062 L 440.355469 425.222656 L 418.546875 425.222656 Z M 418.546875 403.414062 " clip-rule="nonzero"/></clipPath><clipPath id="464d6f3a45"><path d="M 429.453125 403.414062 C 423.429688 403.414062 418.546875 408.296875 418.546875 414.320312 C 418.546875 420.339844 423.429688 425.222656 429.453125 425.222656 C 435.472656 425.222656 440.355469 420.339844 440.355469 414.320312 C 440.355469 408.296875 435.472656 403.414062 429.453125 403.414062 Z M 429.453125 403.414062 " clip-rule="nonzero"/></clipPath><clipPath id="d5eb6b5662"><path d="M 0.546875 0.414062 L 22.355469 0.414062 L 22.355469 22.222656 L 0.546875 22.222656 Z M 0.546875 0.414062 " clip-rule="nonzero"/></clipPath><clipPath id="a0673c44fd"><path d="M 11.453125 0.414062 C 5.429688 0.414062 0.546875 5.296875 0.546875 11.320312 C 0.546875 17.339844 5.429688 22.222656 11.453125 22.222656 C 17.472656 22.222656 22.355469 17.339844 22.355469 11.320312 C 22.355469 5.296875 17.472656 0.414062 11.453125 0.414062 Z M 11.453125 0.414062 " clip-rule="nonzero"/></clipPath><clipPath id="62726ea781"><rect x="0" width="23" y="0" height="23"/></clipPath><clipPath id="045e0126e3"><path d="M 479.429688 403.414062 L 501.238281 403.414062 L 501.238281 425.222656 L 479.429688 425.222656 Z M 479.429688 403.414062 " clip-rule="nonzero"/></clipPath><clipPath id="1c2dcbd1d1"><path d="M 490.332031 403.414062 C 484.3125 403.414062 479.429688 408.296875 479.429688 414.320312 C 479.429688 420.339844 484.3125 425.222656 490.332031 425.222656 C 496.355469 425.222656 501.238281 420.339844 501.238281 414.320312 C 501.238281 408.296875 496.355469 403.414062 490.332031 403.414062 Z M 490.332031 403.414062 " clip-rule="nonzero"/></clipPath><clipPath id="e79ffc8f87"><path d="M 0.429688 0.414062 L 22.238281 0.414062 L 22.238281 22.222656 L 0.429688 22.222656 Z M 0.429688 0.414062 " clip-rule="nonzero"/></clipPath><clipPath id="00425dfb37"><path d="M 11.332031 0.414062 C 5.3125 0.414062 0.429688 5.296875 0.429688 11.320312 C 0.429688 17.339844 5.3125 22.222656 11.332031 22.222656 C 17.355469 22.222656 22.238281 17.339844 22.238281 11.320312 C 22.238281 5.296875 17.355469 0.414062 11.332031 0.414062 Z M 11.332031 0.414062 " clip-rule="nonzero"/></clipPath><clipPath id="d4483696c3"><rect x="0" width="23" y="0" height="23"/></clipPath><clipPath id="7ed29bffc4"><path d="M 359.195312 467.421875 L 381.003906 467.421875 L 381.003906 489.230469 L 359.195312 489.230469 Z M 359.195312 467.421875 " clip-rule="nonzero"/></clipPath><clipPath id="6663946d56"><path d="M 370.097656 467.421875 C 364.074219 467.421875 359.195312 472.304688 359.195312 478.328125 C 359.195312 484.347656 364.074219 489.230469 370.097656 489.230469 C 376.121094 489.230469 381.003906 484.347656 381.003906 478.328125 C 381.003906 472.304688 376.121094 467.421875 370.097656 467.421875 Z M 370.097656 467.421875 " clip-rule="nonzero"/></clipPath><clipPath id="54d0876dbc"><path d="M 0.195312 0.421875 L 22.003906 0.421875 L 22.003906 22.230469 L 0.195312 22.230469 Z M 0.195312 0.421875 " clip-rule="nonzero"/></clipPath><clipPath id="b0c30a1b1b"><path d="M 11.097656 0.421875 C 5.074219 0.421875 0.195312 5.304688 0.195312 11.328125 C 0.195312 17.347656 5.074219 22.230469 11.097656 22.230469 C 17.121094 22.230469 22.003906 17.347656 22.003906 11.328125 C 22.003906 5.304688 17.121094 0.421875 11.097656 0.421875 Z M 11.097656 0.421875 " clip-rule="nonzero"/></clipPath><clipPath id="d1e4e2e567"><rect x="0" width="23" y="0" height="23"/></clipPath><clipPath id="de711df4c2"><path d="M 420.109375 467.421875 L 441.917969 467.421875 L 441.917969 489.230469 L 420.109375 489.230469 Z M 420.109375 467.421875 " clip-rule="nonzero"/></clipPath><clipPath id="0f7b33b587"><path d="M 431.015625 467.421875 C 424.992188 467.421875 420.109375 472.304688 420.109375 478.328125 C 420.109375 484.347656 424.992188 489.230469 431.015625 489.230469 C 437.039062 489.230469 441.917969 484.347656 441.917969 478.328125 C 441.917969 472.304688 437.039062 467.421875 431.015625 467.421875 Z M 431.015625 467.421875 " clip-rule="nonzero"/></clipPath><clipPath id="e5c24854fb"><path d="M 0.109375 0.421875 L 21.917969 0.421875 L 21.917969 22.230469 L 0.109375 22.230469 Z M 0.109375 0.421875 " clip-rule="nonzero"/></clipPath><clipPath id="91acafe9ba"><path d="M 11.015625 0.421875 C 4.992188 0.421875 0.109375 5.304688 0.109375 11.328125 C 0.109375 17.347656 4.992188 22.230469 11.015625 22.230469 C 17.039062 22.230469 21.917969 17.347656 21.917969 11.328125 C 21.917969 5.304688 17.039062 0.421875 11.015625 0.421875 Z M 11.015625 0.421875 " clip-rule="nonzero"/></clipPath><clipPath id="153ee90585"><rect x="0" width="22" y="0" height="23"/></clipPath><clipPath id="38990508f7"><path d="M 480.992188 467.421875 L 502.800781 467.421875 L 502.800781 489.230469 L 480.992188 489.230469 Z M 480.992188 467.421875 " clip-rule="nonzero"/></clipPath><clipPath id="88e8fa5cab"><path d="M 491.894531 467.421875 C 485.875 467.421875 480.992188 472.304688 480.992188 478.328125 C 480.992188 484.347656 485.875 489.230469 491.894531 489.230469 C 497.917969 489.230469 502.800781 484.347656 502.800781 478.328125 C 502.800781 472.304688 497.917969 467.421875 491.894531 467.421875 Z M 491.894531 467.421875 " clip-rule="nonzero"/></clipPath><clipPath id="61e848770b"><path d="M 0.992188 0.421875 L 22.800781 0.421875 L 22.800781 22.230469 L 0.992188 22.230469 Z M 0.992188 0.421875 " clip-rule="nonzero"/></clipPath><clipPath id="9543b8a8b7"><path d="M 11.894531 0.421875 C 5.875 0.421875 0.992188 5.304688 0.992188 11.328125 C 0.992188 17.347656 5.875 22.230469 11.894531 22.230469 C 17.917969 22.230469 22.800781 17.347656 22.800781 11.328125 C 22.800781 5.304688 17.917969 0.421875 11.894531 0.421875 Z M 11.894531 0.421875 " clip-rule="nonzero"/></clipPath><clipPath id="24fb6ab0bb"><rect x="0" width="23" y="0" height="23"/></clipPath><mask id="432aa30104"><g filter="url(#792bb72ac8)"><rect x="-60" width="720" fill="#000000" y="-60" height="719.999999" fill-opacity="0.53"/></g></mask><clipPath id="f9f37db8f9"><path d="M 0.441406 0.359375 L 38.359375 0.359375 L 38.359375 39.238281 L 0.441406 39.238281 Z M 0.441406 0.359375 " clip-rule="nonzero"/></clipPath><clipPath id="cddbf4c12c"><rect x="0" width="39" y="0" height="40"/></clipPath><mask id="3216d6732e"><g filter="url(#792bb72ac8)"><rect x="-60" width="720" fill="#000000" y="-60" height="719.999999" fill-opacity="0.53"/></g></mask><clipPath id="38d446dd55"><path d="M 0.238281 0.078125 L 32.640625 0.078125 L 32.640625 35.601562 L 0.238281 35.601562 Z M 0.238281 0.078125 " clip-rule="nonzero"/></clipPath><clipPath id="f463c76c54"><rect x="0" width="33" y="0" height="36"/></clipPath><mask id="b75037f483"><g filter="url(#792bb72ac8)"><rect x="-60" width="720" fill="#000000" y="-60" height="719.999999" fill-opacity="0.53"/></g></mask><clipPath id="ce6ddff00f"><path d="M 1 4 L 31.839844 4 L 31.839844 8 L 1 8 Z M 1 4 " clip-rule="nonzero"/></clipPath><clipPath id="1d6672e14a"><path d="M 22 0.160156 L 31.839844 0.160156 L 31.839844 12.398438 L 22 12.398438 Z M 22 0.160156 " clip-rule="nonzero"/></clipPath><clipPath id="e18d0f4cea"><rect x="0" width="32" y="0" height="13"/></clipPath><mask id="a3cb57b298"><g filter="url(#792bb72ac8)"><rect x="-60" width="720" fill="#000000" y="-60" height="719.999999" fill-opacity="0.53"/></g></mask><clipPath id="637be7b510"><path d="M 0.160156 5 L 31.839844 5 L 31.839844 9 L 0.160156 9 Z M 0.160156 5 " clip-rule="nonzero"/></clipPath><clipPath id="c6221ab8da"><path d="M 22 0.519531 L 31.839844 0.519531 L 31.839844 12.761719 L 22 12.761719 Z M 22 0.519531 " clip-rule="nonzero"/></clipPath><clipPath id="cd2bdb7ca7"><rect x="0" width="32" y="0" height="13"/></clipPath><mask id="30c305d52b"><g filter="url(#792bb72ac8)"><rect x="-60" width="720" fill="#000000" y="-60" height="719.999999" fill-opacity="0.53"/></g></mask><clipPath id="25f364a483"><path d="M 0.078125 0.558594 L 31.761719 0.558594 L 31.761719 30.800781 L 0.078125 30.800781 Z M 0.078125 0.558594 " clip-rule="nonzero"/></clipPath><clipPath id="6be034cda6"><rect x="0" width="32" y="0" height="31"/></clipPath><mask id="a5fcd81523"><g filter="url(#792bb72ac8)"><rect x="-60" width="720" fill="#000000" y="-60" height="719.999999" fill-opacity="0.53"/></g></mask><clipPath id="bd18f0004b"><path d="M 0.441406 0.839844 L 33.558594 0.839844 L 33.558594 34.921875 L 0.441406 34.921875 Z M 0.441406 0.839844 " clip-rule="nonzero"/></clipPath><clipPath id="22fe5a9612"><rect x="0" width="34" y="0" height="35"/></clipPath></defs><g clip-path="url(#6b5a998ca4)"><g clip-path="url(#816863dfe8)"><g transform="matrix(1, 0, 0, 1, 89, 118)"><g clip-path="url(#b3113cee7b)"><g clip-path="url(#1128a1aeaa)"><g clip-path="url(#ef05b8a792)"><path fill="#8a5cf6" d="M 0.210938 0.710938 L 22.019531 0.710938 L 22.019531 22.519531 L 0.210938 22.519531 Z M 0.210938 0.710938 " fill-opacity="1" fill-rule="nonzero"/></g></g></g></g></g></g><g clip-path="url(#4a91a1e8b6)"><g clip-path="url(#b38d172a0b)"><g transform="matrix(1, 0, 0, 1, 150, 118)"><g clip-path="url(#82c8b58182)"><g clip-path="url(#af96b46dac)"><g clip-path="url(#d7d20bdc44)"><path fill="#b4b4b4" d="M 0.128906 0.710938 L 21.9375 0.710938 L 21.9375 22.519531 L 0.128906 22.519531 Z M 0.128906 0.710938 " fill-opacity="1" fill-rule="nonzero"/></g></g></g></g></g></g><g clip-path="url(#3cadf591fe)"><g clip-path="url(#fce808b53c)"><g transform="matrix(1, 0, 0, 1, 211, 118)"><g clip-path="url(#faa6437e43)"><g clip-path="url(#59eb402ded)"><g clip-path="url(#36cc320cdb)"><path fill="#b4b4b4" d="M 0.0078125 0.710938 L 21.816406 0.710938 L 21.816406 22.519531 L 0.0078125 22.519531 Z M 0.0078125 0.710938 " fill-opacity="1" fill-rule="nonzero"/></g></g></g></g></g></g><g clip-path="url(#19fdbd90e7)"><g clip-path="url(#d37bcd02dc)"><g transform="matrix(1, 0, 0, 1, 90, 184)"><g clip-path="url(#bf7a14a3b5)"><g clip-path="url(#39d4fe6e0c)"><g clip-path="url(#45906ba968)"><path fill="#b4b4b4" d="M 0.738281 0.28125 L 22.546875 0.28125 L 22.546875 22.089844 L 0.738281 22.089844 Z M 0.738281 0.28125 " fill-opacity="1" fill-rule="nonzero"/></g></g></g></g></g></g><g clip-path="url(#9819cb3a7e)"><g clip-path="url(#f09e51fea2)"><g transform="matrix(1, 0, 0, 1, 151, 184)"><g clip-path="url(#b6dd44f708)"><g clip-path="url(#ea8d792d36)"><g clip-path="url(#1d1cac3d33)"><path fill="#b4b4b4" d="M 0.65625 0.28125 L 22.464844 0.28125 L 22.464844 22.089844 L 0.65625 22.089844 Z M 0.65625 0.28125 " fill-opacity="1" fill-rule="nonzero"/></g></g></g></g></g></g><g clip-path="url(#7519793ed8)"><g clip-path="url(#c34ec11c67)"><g transform="matrix(1, 0, 0, 1, 212, 184)"><g clip-path="url(#d6b56d5105)"><g clip-path="url(#3eb26cf5b6)"><g clip-path="url(#dc914bf77b)"><path fill="#8a5cf6" d="M 0.535156 0.28125 L 22.34375 0.28125 L 22.34375 22.089844 L 0.535156 22.089844 Z M 0.535156 0.28125 " fill-opacity="1" fill-rule="nonzero"/></g></g></g></g></g></g><g clip-path="url(#7e6c38e97a)"><g clip-path="url(#8801f9905a)"><g transform="matrix(1, 0, 0, 1, 92, 248)"><g clip-path="url(#6ca6ef3b44)"><g clip-path="url(#49d8fac3c3)"><g clip-path="url(#9510607ff9)"><path fill="#8a5cf6" d="M 0.300781 0.289062 L 22.109375 0.289062 L 22.109375 22.097656 L 0.300781 22.097656 Z M 0.300781 0.289062 " fill-opacity="1" fill-rule="nonzero"/></g></g></g></g></g></g><g clip-path="url(#8e6e67aa57)"><g clip-path="url(#13a779511f)"><g transform="matrix(1, 0, 0, 1, 153, 248)"><g clip-path="url(#f86fa4183f)"><g clip-path="url(#9f066006af)"><g clip-path="url(#e201ecbc45)"><path fill="#b4b4b4" d="M 0.21875 0.289062 L 22.027344 0.289062 L 22.027344 22.097656 L 0.21875 22.097656 Z M 0.21875 0.289062 " fill-opacity="1" fill-rule="nonzero"/></g></g></g></g></g></g><g clip-path="url(#b2fbdb3f1f)"><g clip-path="url(#9408296ba2)"><g transform="matrix(1, 0, 0, 1, 214, 248)"><g clip-path="url(#96bcba90ca)"><g clip-path="url(#2e1ec037df)"><g clip-path="url(#6cf0a93bfa)"><path fill="#b4b4b4" d="M 0.0976562 0.289062 L 21.90625 0.289062 L 21.90625 22.097656 L 0.0976562 22.097656 Z M 0.0976562 0.289062 " fill-opacity="1" fill-rule="nonzero"/></g></g></g></g></g></g><g clip-path="url(#34748bd28d)"><g clip-path="url(#5d96e2376d)"><g transform="matrix(1, 0, 0, 1, 357, 117)"><g clip-path="url(#769d4e3db9)"><g clip-path="url(#03b45cebf1)"><g clip-path="url(#4d959d5061)"><path fill="#8a5cf6" d="M 0.101562 0.929688 L 21.910156 0.929688 L 21.910156 22.738281 L 0.101562 22.738281 Z M 0.101562 0.929688 " fill-opacity="1" fill-rule="nonzero"/></g></g></g></g></g></g><g clip-path="url(#56b0fbe755)"><g clip-path="url(#8f6dded9c2)"><g transform="matrix(1, 0, 0, 1, 418, 117)"><g clip-path="url(#c7f64abf39)"><g clip-path="url(#f8c2b13fdb)"><g clip-path="url(#20fb008b86)"><path fill="#b4b4b4" d="M 0.0195312 0.929688 L 21.828125 0.929688 L 21.828125 22.738281 L 0.0195312 22.738281 Z M 0.0195312 0.929688 " fill-opacity="1" fill-rule="nonzero"/></g></g></g></g></g></g><g clip-path="url(#960f697257)"><g clip-path="url(#cdef1ec6bf)"><g transform="matrix(1, 0, 0, 1, 478, 117)"><g clip-path="url(#a7eebcd56d)"><g clip-path="url(#bc98bf3880)"><g clip-path="url(#4d4a2bbe01)"><path fill="#8a5cf6" d="M 0.902344 0.929688 L 22.710938 0.929688 L 22.710938 22.738281 L 0.902344 22.738281 Z M 0.902344 0.929688 " fill-opacity="1" fill-rule="nonzero"/></g></g></g></g></g></g><g clip-path="url(#6ef676842f)"><g clip-path="url(#ba9a9b2081)"><g transform="matrix(1, 0, 0, 1, 358, 183)"><g clip-path="url(#8660bf96df)"><g clip-path="url(#7cfa6ea801)"><g clip-path="url(#32903b5040)"><path fill="#b4b4b4" d="M 0.628906 0.5 L 22.4375 0.5 L 22.4375 22.308594 L 0.628906 22.308594 Z M 0.628906 0.5 " fill-opacity="1" fill-rule="nonzero"/></g></g></g></g></g></g><g clip-path="url(#853e14dff6)"><g clip-path="url(#d3d97df3ad)"><g transform="matrix(1, 0, 0, 1, 419, 183)"><g clip-path="url(#1336127a32)"><g clip-path="url(#12f07ddd69)"><g clip-path="url(#1b8f82586c)"><path fill="#8a5cf6" d="M 0.546875 0.5 L 22.355469 0.5 L 22.355469 22.308594 L 0.546875 22.308594 Z M 0.546875 0.5 " fill-opacity="1" fill-rule="nonzero"/></g></g></g></g></g></g><g clip-path="url(#b2f6d3f91b)"><g clip-path="url(#26df985e18)"><g transform="matrix(1, 0, 0, 1, 480, 183)"><g clip-path="url(#ef2ac8e513)"><g clip-path="url(#297a5715c3)"><g clip-path="url(#2680408659)"><path fill="#b4b4b4" d="M 0.429688 0.5 L 22.238281 0.5 L 22.238281 22.308594 L 0.429688 22.308594 Z M 0.429688 0.5 " fill-opacity="1" fill-rule="nonzero"/></g></g></g></g></g></g><g clip-path="url(#dca88f66c9)"><g clip-path="url(#5993ad369a)"><g transform="matrix(1, 0, 0, 1, 360, 247)"><g clip-path="url(#ee404f9320)"><g clip-path="url(#a249846332)"><g clip-path="url(#d9f74b5d5c)"><path fill="#8a5cf6" d="M 0.191406 0.507812 L 22 0.507812 L 22 22.316406 L 0.191406 22.316406 Z M 0.191406 0.507812 " fill-opacity="1" fill-rule="nonzero"/></g></g></g></g></g></g><g clip-path="url(#bd701b1427)"><g clip-path="url(#341f9786af)"><g transform="matrix(1, 0, 0, 1, 421, 247)"><g clip-path="url(#1279093cd4)"><g clip-path="url(#c53d67a1fa)"><g clip-path="url(#581ac0ee58)"><path fill="#b4b4b4" d="M 0.109375 0.507812 L 21.917969 0.507812 L 21.917969 22.316406 L 0.109375 22.316406 Z M 0.109375 0.507812 " fill-opacity="1" fill-rule="nonzero"/></g></g></g></g></g></g><g clip-path="url(#482abe8c04)"><g clip-path="url(#9466e7a1c4)"><g transform="matrix(1, 0, 0, 1, 481, 247)"><g clip-path="url(#696c37c6a2)"><g clip-path="url(#2461e246f9)"><g clip-path="url(#7197b75807)"><path fill="#8a5cf6" d="M 0.992188 0.507812 L 22.800781 0.507812 L 22.800781 22.316406 L 0.992188 22.316406 Z M 0.992188 0.507812 " fill-opacity="1" fill-rule="nonzero"/></g></g></g></g></g></g><path stroke-linecap="butt" transform="matrix(0.662218, 0.35209, -0.35209, 0.662218, 110.801129, 132.750746)" fill="none" stroke-linejoin="miter" d="M 0.00200389 3.000264 L 157.144293 3.000162 " stroke="#8a5cf6" stroke-width="6" stroke-opacity="1" stroke-miterlimit="4"/><path stroke-linecap="butt" transform="matrix(0.662036, -0.352433, 0.352433, 0.662036, 111.774305, 252.079315)" fill="none" stroke-linejoin="miter" d="M -0.000112923 3.001427 L 152.530876 3.000053 " stroke="#8a5cf6" stroke-width="6" stroke-opacity="1" stroke-miterlimit="4"/><g mask="url(#3f0fe40ae2)"><g transform="matrix(1, 0, 0, 1, 99, 104)"><g clip-path="url(#21b7968fb5)"><g clip-path="url(#30e36fdb99)"><path stroke-linecap="butt" transform="matrix(-0.660763, -0.354813, 0.354813, -0.660763, 37.0929, 26.155908)" fill="none" stroke-linejoin="miter" d="M 2.000471 1.999378 L 49.394964 1.999697 " stroke="#8a5cf6" stroke-width="4" stroke-opacity="1" stroke-miterlimit="4"/></g><path stroke-linecap="round" transform="matrix(-0.660763, -0.354813, 0.354813, -0.660763, 37.0929, 26.155908)" fill="none" stroke-linejoin="round" d="M 10.000066 -3.998784 L 2.000471 1.999378 L 10.00034 8.001876 " stroke="#8a5cf6" stroke-width="4" stroke-opacity="1" stroke-miterlimit="4"/></g></g></g><g mask="url(#df4ecd9d4e)"><g transform="matrix(1, 0, 0, 1, 119, 246)"><g clip-path="url(#f378db970a)"><g clip-path="url(#f5a9c2b38f)"><path stroke-linecap="butt" transform="matrix(0.668233, -0.340536, 0.340536, 0.668233, 2.827915, 21.978729)" fill="none" stroke-linejoin="miter" d="M 1.99877 1.997413 L 49.393125 2.001578 " stroke="#8a5cf6" stroke-width="4" stroke-opacity="1" stroke-miterlimit="4"/></g><path stroke-linecap="round" transform="matrix(0.668233, -0.340536, 0.340536, 0.668233, 2.827915, 21.978729)" fill="none" stroke-linejoin="round" d="M 9.99925 -3.997526 L 1.99877 1.997413 L 10.000575 7.99841 " stroke="#8a5cf6" stroke-width="4" stroke-opacity="1" stroke-miterlimit="4"/></g></g></g><path stroke-linecap="butt" transform="matrix(0.506631, -0.553015, 0.553015, 0.506631, 376.802915, 248.847871)" fill="none" stroke-linejoin="miter" d="M -0.000354683 2.998478 L 205.231192 2.998463 " stroke="#8a5cf6" stroke-width="6" stroke-opacity="1" stroke-miterlimit="4"/><path stroke-linecap="butt" transform="matrix(0.52047, 0.54001, -0.54001, 0.52047, 377.193207, 135.12876)" fill="none" stroke-linejoin="miter" d="M 0.00215094 3.000144 L 210.877306 3.000673 " stroke="#8a5cf6" stroke-width="6" stroke-opacity="1" stroke-miterlimit="4"/><g mask="url(#c9f31469b1)"><g transform="matrix(1, 0, 0, 1, 378, 113)"><g clip-path="url(#e03019f892)"><g clip-path="url(#b4fc3fa3d7)"><path stroke-linecap="butt" transform="matrix(-0.508767, -0.55105, 0.55105, -0.508767, 24.948557, 28.534242)" fill="none" stroke-linejoin="miter" d="M 2.00223 1.998658 L 39.578772 1.999589 " stroke="#8a5cf6" stroke-width="4" stroke-opacity="1" stroke-miterlimit="4"/></g><path stroke-linecap="round" transform="matrix(-0.508767, -0.55105, 0.55105, -0.508767, 24.948557, 28.534242)" fill="none" stroke-linejoin="round" d="M 10.000607 -4.000235 L 2.00223 1.998658 L 10.000253 8.000672 " stroke="#8a5cf6" stroke-width="4" stroke-opacity="1" stroke-miterlimit="4"/></g></g></g><g mask="url(#1af098026e)"><g transform="matrix(1, 0, 0, 1, 485, 134)"><g clip-path="url(#e7cd41b696)"><g clip-path="url(#349aeff2b2)"><path stroke-linecap="butt" transform="matrix(0.559162, -0.499838, 0.499838, 0.559162, 3.805565, 24.156483)" fill="none" stroke-linejoin="miter" d="M 1.999826 1.996814 L 37.52525 2.002254 " stroke="#8a5cf6" stroke-width="4" stroke-opacity="1" stroke-miterlimit="4"/></g><path stroke-linecap="round" transform="matrix(0.559162, -0.499838, 0.499838, 0.559162, 3.805565, 24.156483)" fill="none" stroke-linejoin="round" d="M 10.000228 -3.99905 L 1.999826 1.996814 L 9.997398 8.000197 " stroke="#8a5cf6" stroke-width="4" stroke-opacity="1" stroke-miterlimit="4"/></g></g></g><g clip-path="url(#a3a0ccb54d)"><g clip-path="url(#7eff985d7f)"><g transform="matrix(1, 0, 0, 1, 88, 338)"><g clip-path="url(#acd8525dd5)"><g clip-path="url(#812ea0676d)"><g clip-path="url(#90b5c6979f)"><path fill="#b4b4b4" d="M 0.210938 0.625 L 22.019531 0.625 L 22.019531 22.433594 L 0.210938 22.433594 Z M 0.210938 0.625 " fill-opacity="1" fill-rule="nonzero"/></g></g></g></g></g></g><g clip-path="url(#5322f42d55)"><g clip-path="url(#f0c23e39e5)"><g transform="matrix(1, 0, 0, 1, 149, 338)"><g clip-path="url(#32036db6a1)"><g clip-path="url(#71625b5398)"><g clip-path="url(#074c825df5)"><path fill="#8a5cf6" d="M 0.128906 0.625 L 21.9375 0.625 L 21.9375 22.433594 L 0.128906 22.433594 Z M 0.128906 0.625 " fill-opacity="1" fill-rule="nonzero"/></g></g></g></g></g></g><g clip-path="url(#eb482b8843)"><g clip-path="url(#69bf685a9e)"><g transform="matrix(1, 0, 0, 1, 210, 338)"><g clip-path="url(#51341d08ee)"><g clip-path="url(#5ec2dba46a)"><g clip-path="url(#3cf3908819)"><path fill="#b4b4b4" d="M 0.0078125 0.625 L 21.816406 0.625 L 21.816406 22.433594 L 0.0078125 22.433594 Z M 0.0078125 0.625 " fill-opacity="1" fill-rule="nonzero"/></g></g></g></g></g></g><g clip-path="url(#a582da94cc)"><g clip-path="url(#c3fb1d11ce)"><g transform="matrix(1, 0, 0, 1, 89, 404)"><g clip-path="url(#8e035db354)"><g clip-path="url(#c0016f4e21)"><g clip-path="url(#83c875d472)"><path fill="#8a5cf6" d="M 0.738281 0.195312 L 22.546875 0.195312 L 22.546875 22.003906 L 0.738281 22.003906 Z M 0.738281 0.195312 " fill-opacity="1" fill-rule="nonzero"/></g></g></g></g></g></g><g clip-path="url(#3dc350929d)"><g clip-path="url(#21d9c5db7b)"><g transform="matrix(1, 0, 0, 1, 150, 404)"><g clip-path="url(#8270fa72c9)"><g clip-path="url(#b8937cc01d)"><g clip-path="url(#bcbc3fe897)"><path fill="#b4b4b4" d="M 0.65625 0.195312 L 22.464844 0.195312 L 22.464844 22.003906 L 0.65625 22.003906 Z M 0.65625 0.195312 " fill-opacity="1" fill-rule="nonzero"/></g></g></g></g></g></g><g clip-path="url(#67cbc8021f)"><g clip-path="url(#020f380c66)"><g transform="matrix(1, 0, 0, 1, 211, 404)"><g clip-path="url(#b9550d46a7)"><g clip-path="url(#c90bc19302)"><g clip-path="url(#714a554281)"><path fill="#8a5cf6" d="M 0.535156 0.195312 L 22.34375 0.195312 L 22.34375 22.003906 L 0.535156 22.003906 Z M 0.535156 0.195312 " fill-opacity="1" fill-rule="nonzero"/></g></g></g></g></g></g><g clip-path="url(#3650f47436)"><g clip-path="url(#26c82b4252)"><g transform="matrix(1, 0, 0, 1, 91, 468)"><g clip-path="url(#6000355a0f)"><g clip-path="url(#2e1badea85)"><g clip-path="url(#6563b32069)"><path fill="#b4b4b4" d="M 0.300781 0.203125 L 22.109375 0.203125 L 22.109375 22.011719 L 0.300781 22.011719 Z M 0.300781 0.203125 " fill-opacity="1" fill-rule="nonzero"/></g></g></g></g></g></g><g clip-path="url(#d30da000e8)"><g clip-path="url(#0e9ff5f6ee)"><g transform="matrix(1, 0, 0, 1, 152, 468)"><g clip-path="url(#0219ed6ce2)"><g clip-path="url(#1617a7929b)"><g clip-path="url(#488a808a6e)"><path fill="#8a5cf6" d="M 0.21875 0.203125 L 22.027344 0.203125 L 22.027344 22.011719 L 0.21875 22.011719 Z M 0.21875 0.203125 " fill-opacity="1" fill-rule="nonzero"/></g></g></g></g></g></g><g clip-path="url(#088f141b85)"><g clip-path="url(#62b8cab4d3)"><g transform="matrix(1, 0, 0, 1, 213, 468)"><g clip-path="url(#1721cc6648)"><g clip-path="url(#8f7e762b4f)"><g clip-path="url(#3e35fd262a)"><path fill="#b4b4b4" d="M 0.0976562 0.203125 L 21.90625 0.203125 L 21.90625 22.011719 L 0.0976562 22.011719 Z M 0.0976562 0.203125 " fill-opacity="1" fill-rule="nonzero"/></g></g></g></g></g></g><g clip-path="url(#3eee611e3e)"><g clip-path="url(#6d11d174d4)"><g transform="matrix(1, 0, 0, 1, 356, 337)"><g clip-path="url(#7433187c5c)"><g clip-path="url(#3e92391752)"><g clip-path="url(#60a954d8a8)"><path fill="#8a5cf6" d="M 0.105469 0.84375 L 21.914062 0.84375 L 21.914062 22.652344 L 0.105469 22.652344 Z M 0.105469 0.84375 " fill-opacity="1" fill-rule="nonzero"/></g></g></g></g></g></g><g clip-path="url(#32bcab74c0)"><g clip-path="url(#89c4bf8608)"><g transform="matrix(1, 0, 0, 1, 417, 337)"><g clip-path="url(#bb0e9a196c)"><g clip-path="url(#56ceec8982)"><g clip-path="url(#1e5c5f83de)"><path fill="#b4b4b4" d="M 0.0195312 0.84375 L 21.828125 0.84375 L 21.828125 22.652344 L 0.0195312 22.652344 Z M 0.0195312 0.84375 " fill-opacity="1" fill-rule="nonzero"/></g></g></g></g></g></g><g clip-path="url(#39175bfa93)"><g clip-path="url(#2fedfb8da7)"><g transform="matrix(1, 0, 0, 1, 477, 337)"><g clip-path="url(#78aa91dcd8)"><g clip-path="url(#6ef918d3ff)"><g clip-path="url(#c7f7687089)"><path fill="#8a5cf6" d="M 0.902344 0.84375 L 22.710938 0.84375 L 22.710938 22.652344 L 0.902344 22.652344 Z M 0.902344 0.84375 " fill-opacity="1" fill-rule="nonzero"/></g></g></g></g></g></g><g clip-path="url(#a51360af57)"><g clip-path="url(#123602ac80)"><g transform="matrix(1, 0, 0, 1, 357, 403)"><g clip-path="url(#35b772b7c6)"><g clip-path="url(#1f5fbf20c0)"><g clip-path="url(#2075c7a526)"><path fill="#b4b4b4" d="M 0.628906 0.414062 L 22.4375 0.414062 L 22.4375 22.222656 L 0.628906 22.222656 Z M 0.628906 0.414062 " fill-opacity="1" fill-rule="nonzero"/></g></g></g></g></g></g><g clip-path="url(#139f3acaa4)"><g clip-path="url(#464d6f3a45)"><g transform="matrix(1, 0, 0, 1, 418, 403)"><g clip-path="url(#62726ea781)"><g clip-path="url(#d5eb6b5662)"><g clip-path="url(#a0673c44fd)"><path fill="#b4b4b4" d="M 0.546875 0.414062 L 22.355469 0.414062 L 22.355469 22.222656 L 0.546875 22.222656 Z M 0.546875 0.414062 " fill-opacity="1" fill-rule="nonzero"/></g></g></g></g></g></g><g clip-path="url(#045e0126e3)"><g clip-path="url(#1c2dcbd1d1)"><g transform="matrix(1, 0, 0, 1, 479, 403)"><g clip-path="url(#d4483696c3)"><g clip-path="url(#e79ffc8f87)"><g clip-path="url(#00425dfb37)"><path fill="#b4b4b4" d="M 0.429688 0.414062 L 22.238281 0.414062 L 22.238281 22.222656 L 0.429688 22.222656 Z M 0.429688 0.414062 " fill-opacity="1" fill-rule="nonzero"/></g></g></g></g></g></g><g clip-path="url(#7ed29bffc4)"><g clip-path="url(#6663946d56)"><g transform="matrix(1, 0, 0, 1, 359, 467)"><g clip-path="url(#d1e4e2e567)"><g clip-path="url(#54d0876dbc)"><g clip-path="url(#b0c30a1b1b)"><path fill="#8a5cf6" d="M 0.195312 0.421875 L 22.003906 0.421875 L 22.003906 22.230469 L 0.195312 22.230469 Z M 0.195312 0.421875 " fill-opacity="1" fill-rule="nonzero"/></g></g></g></g></g></g><g clip-path="url(#de711df4c2)"><g clip-path="url(#0f7b33b587)"><g transform="matrix(1, 0, 0, 1, 420, 467)"><g clip-path="url(#153ee90585)"><g clip-path="url(#e5c24854fb)"><g clip-path="url(#91acafe9ba)"><path fill="#b4b4b4" d="M 0.109375 0.421875 L 21.917969 0.421875 L 21.917969 22.230469 L 0.109375 22.230469 Z M 0.109375 0.421875 " fill-opacity="1" fill-rule="nonzero"/></g></g></g></g></g></g><g clip-path="url(#38990508f7)"><g clip-path="url(#88e8fa5cab)"><g transform="matrix(1, 0, 0, 1, 480, 467)"><g clip-path="url(#24fb6ab0bb)"><g clip-path="url(#61e848770b)"><g clip-path="url(#9543b8a8b7)"><path fill="#8a5cf6" d="M 0.992188 0.421875 L 22.800781 0.421875 L 22.800781 22.230469 L 0.992188 22.230469 Z M 0.992188 0.421875 " fill-opacity="1" fill-rule="nonzero"/></g></g></g></g></g></g><path stroke-linecap="butt" transform="matrix(0.503489, -0.555877, 0.555877, 0.503489, 106.294573, 405.507075)" fill="none" stroke-linejoin="miter" d="M 0.000760104 2.997035 L 88.876751 3.000541 " stroke="#8a5cf6" stroke-width="6" stroke-opacity="1" stroke-miterlimit="4"/><path stroke-linecap="butt" transform="matrix(0.52389, 0.536693, -0.536693, 0.52389, 109.868016, 421.335266)" fill="none" stroke-linejoin="miter" d="M -0.000771109 2.999481 L 90.184035 3.001009 " stroke="#8a5cf6" stroke-width="6" stroke-opacity="1" stroke-miterlimit="4"/><g mask="url(#432aa30104)"><g transform="matrix(1, 0, 0, 1, 169, 333)"><g clip-path="url(#cddbf4c12c)"><g clip-path="url(#f9f37db8f9)"><path stroke-linecap="butt" transform="matrix(-0.516084, -0.544204, 0.544204, -0.516084, 32.798493, 36.037299)" fill="none" stroke-linejoin="miter" d="M 1.998121 1.999571 L 53.985135 2.002371 " stroke="#8a5cf6" stroke-width="4" stroke-opacity="1" stroke-miterlimit="4"/></g><path stroke-linecap="round" transform="matrix(-0.516084, -0.544204, 0.544204, -0.516084, 32.798493, 36.037299)" fill="none" stroke-linejoin="round" d="M 9.999371 -4.00042 L 1.998121 1.999571 L 10.000865 8.002478 " stroke="#8a5cf6" stroke-width="4" stroke-opacity="1" stroke-miterlimit="4"/></g></g></g><g mask="url(#3216d6732e)"><g transform="matrix(1, 0, 0, 1, 198, 430)"><g clip-path="url(#f463c76c54)"><g clip-path="url(#38d446dd55)"><path stroke-linecap="butt" transform="matrix(0.481031, -0.575421, 0.575421, 0.481031, 3.735416, 30.738213)" fill="none" stroke-linejoin="miter" d="M 1.998053 2.000474 L 45.976114 2.002987 " stroke="#8a5cf6" stroke-width="4" stroke-opacity="1" stroke-miterlimit="4"/></g><path stroke-linecap="round" transform="matrix(0.481031, -0.575421, 0.575421, 0.481031, 3.735416, 30.738213)" fill="none" stroke-linejoin="round" d="M 9.999731 -4.002997 L 1.998053 2.000474 L 9.999665 7.999142 " stroke="#8a5cf6" stroke-width="4" stroke-opacity="1" stroke-miterlimit="4"/></g></g></g><path stroke-linecap="butt" transform="matrix(0.75, 0, 0, 0.75, 381.002151, 476.076264)" fill="none" stroke-linejoin="miter" d="M 0.00234001 3.002482 L 133.320054 3.002482 " stroke="#8a5cf6" stroke-width="6" stroke-opacity="1" stroke-miterlimit="4"/><path stroke-linecap="butt" transform="matrix(0.75, 0, 0, 0.75, 377.912358, 346.499331)" fill="none" stroke-linejoin="miter" d="M 0.00227297 3.000892 L 133.319987 3.000892 " stroke="#8a5cf6" stroke-width="6" stroke-opacity="1" stroke-miterlimit="4"/><g mask="url(#b75037f483)"><g transform="matrix(1, 0, 0, 1, 380, 326)"><g clip-path="url(#e18d0f4cea)"><g clip-path="url(#ce6ddff00f)"><path stroke-linecap="butt" transform="matrix(-0.75, -0.000000001309, 0.000000001309, -0.75, 31.682366, 7.749332)" fill="none" stroke-linejoin="miter" d="M 1.998363 1.999109 L 38.347322 1.999109 " stroke="#8a5cf6" stroke-width="4" stroke-opacity="1" stroke-miterlimit="4"/></g><g clip-path="url(#1d6672e14a)"><path stroke-linecap="round" transform="matrix(-0.75, -0.000000001309, 0.000000001309, -0.75, 31.682366, 7.749332)" fill="none" stroke-linejoin="round" d="M 9.998363 -4.000891 L 1.998363 1.999109 L 9.998363 7.999109 " stroke="#8a5cf6" stroke-width="4" stroke-opacity="1" stroke-miterlimit="4"/></g></g></g></g><g mask="url(#a3cb57b298)"><g transform="matrix(1, 0, 0, 1, 380, 455)"><g clip-path="url(#cd2bdb7ca7)"><g clip-path="url(#637be7b510)"><path stroke-linecap="butt" transform="matrix(-0.75, 0, 0, -0.75, 31.673723, 8.202549)" fill="none" stroke-linejoin="miter" d="M 2.002464 1.999232 L 39.575382 1.999232 " stroke="#8a5cf6" stroke-width="4" stroke-opacity="1" stroke-miterlimit="4"/></g><g clip-path="url(#c6221ab8da)"><path stroke-linecap="round" transform="matrix(-0.75, 0, 0, -0.75, 31.673723, 8.202549)" fill="none" stroke-linejoin="round" d="M 10.002464 -4.000768 L 2.002464 1.999232 L 10.002464 7.999232 " stroke="#8a5cf6" stroke-width="4" stroke-opacity="1" stroke-miterlimit="4"/></g></g></g></g><path stroke-linecap="butt" transform="matrix(-0.51707, -0.543267, 0.543267, -0.51707, 213.288169, 408.751107)" fill="none" stroke-linejoin="miter" d="M 0.000654497 3.000623 L 91.617405 3.002789 " stroke="#8a5cf6" stroke-width="6" stroke-opacity="1" stroke-miterlimit="4"/><path stroke-linecap="butt" transform="matrix(0.509799, -0.550095, 0.550095, 0.509799, 168.882795, 469.57704)" fill="none" stroke-linejoin="miter" d="M -0.000711697 2.997332 L 87.279453 2.998678 " stroke="#8a5cf6" stroke-width="6" stroke-opacity="1" stroke-miterlimit="4"/><g mask="url(#30c305d52b)"><g transform="matrix(1, 0, 0, 1, 88, 430)"><g clip-path="url(#6be034cda6)"><g clip-path="url(#25f364a483)"><path stroke-linecap="butt" transform="matrix(0.558202, 0.500909, -0.500909, 0.558202, 5.30182, 4.131994)" fill="none" stroke-linejoin="miter" d="M 2.001357 1.998394 L 39.07164 2.001022 " stroke="#8a5cf6" stroke-width="4" stroke-opacity="1" stroke-miterlimit="4"/></g><path stroke-linecap="round" transform="matrix(0.558202, 0.500909, -0.500909, 0.558202, 5.30182, 4.131994)" fill="none" stroke-linejoin="round" d="M 10.000918 -3.997455 L 2.001357 1.998394 L 9.99734 8.000172 " stroke="#8a5cf6" stroke-width="4" stroke-opacity="1" stroke-miterlimit="4"/></g></g></g><g mask="url(#a5fcd81523)"><g transform="matrix(1, 0, 0, 1, 85, 363)"><g clip-path="url(#22fe5a9612)"><g clip-path="url(#bd18f0004b)"><path stroke-linecap="butt" transform="matrix(-0.51457, 0.545635, -0.545635, -0.51457, 30.192686, 6.037856)" fill="none" stroke-linejoin="miter" d="M 1.999753 1.996672 L 44.326403 1.998895 " stroke="#8a5cf6" stroke-width="4" stroke-opacity="1" stroke-miterlimit="4"/></g><path stroke-linecap="round" transform="matrix(-0.51457, 0.545635, -0.545635, -0.51457, 30.192686, 6.037856)" fill="none" stroke-linejoin="round" d="M 9.997481 -3.99936 L 1.999753 1.996672 L 9.999681 7.997204 " stroke="#8a5cf6" stroke-width="4" stroke-opacity="1" stroke-miterlimit="4"/></g></g></g></svg>