<svg xmlns="http://www.w3.org/2000/svg" xmlns:xlink="http://www.w3.org/1999/xlink" width="40" zoomAndPan="magnify" viewBox="0 0 30 30.000001" height="40" preserveAspectRatio="xMidYMid meet" version="1.0"><defs><clipPath id="db01dca11f"><path d="M 1 8.421875 L 29.515625 8.421875 L 29.515625 20.757812 L 1 20.757812 Z M 1 8.421875 " clip-rule="nonzero"/></clipPath><clipPath id="ffabdb1f16"><path d="M 25 4 L 28.050781 4 L 28.050781 7 L 25 7 Z M 25 4 " clip-rule="nonzero"/></clipPath><clipPath id="31b522f50c"><path d="M 24 0.59375 L 28 0.59375 L 28 5 L 24 5 Z M 24 0.59375 " clip-rule="nonzero"/></clipPath><clipPath id="cfead1dda0"><path d="M 0.179688 1 L 25 1 L 25 12 L 0.179688 12 Z M 0.179688 1 " clip-rule="nonzero"/></clipPath><clipPath id="ce24fc313b"><path d="M 21 10 L 24 10 L 24 12.4375 L 21 12.4375 Z M 21 10 " clip-rule="nonzero"/></clipPath><clipPath id="d3caff7b21"><rect x="0" width="29" y="0" height="13"/></clipPath></defs><g clip-path="url(#db01dca11f)"><g transform="matrix(1, 0, 0, 1, 1, 8)"><g clip-path="url(#d3caff7b21)"><g clip-path="url(#ffabdb1f16)"><path fill="#3b81f7" d="M 28.007812 5.957031 C 28.285156 4.757812 26.496094 4.566406 25.929688 5.359375 C 25.183594 6.425781 27.113281 7.460938 27.785156 6.476562 C 27.902344 6.328125 27.972656 6.144531 28.007812 5.957031 Z M 28.007812 5.957031 " fill-opacity="1" fill-rule="nonzero"/></g><g clip-path="url(#31b522f50c)"><path fill="#3b81f7" d="M 27.71875 2.484375 C 27.851562 1.125 26.226562 0.429688 25.082031 0.695312 C 23.617188 1.066406 24.023438 2.863281 24.960938 3.585938 C 25.980469 4.855469 27.554688 3.832031 27.71875 2.484375 Z M 27.71875 2.484375 " fill-opacity="1" fill-rule="nonzero"/></g><path fill="#3b81f7" d="M 26.882812 8.097656 C 26.949219 6.625 24.265625 6.671875 24.554688 8.203125 C 24.898438 9.226562 26.796875 9.398438 26.882812 8.097656 Z M 26.882812 8.097656 " fill-opacity="1" fill-rule="nonzero"/><path fill="#3b81f7" d="M 25.136719 10.082031 C 25.308594 8.703125 22.796875 8.539062 22.957031 10 C 23.199219 10.859375 24.863281 10.929688 25.136719 10.082031 Z M 25.136719 10.082031 " fill-opacity="1" fill-rule="nonzero"/><g clip-path="url(#cfead1dda0)"><path fill="#3b81f7" d="M 24.625 5.3125 C 24.816406 3.816406 23.804688 2.421875 22.660156 1.570312 C 21.226562 0.714844 19.386719 1.046875 17.925781 1.675781 C 16.636719 2.230469 15.605469 3.210938 14.644531 4.199219 C 13.460938 4.980469 11.910156 5.195312 10.535156 4.90625 C 9.199219 4.511719 7.957031 3.792969 6.535156 3.734375 C 4.988281 3.578125 3.339844 3.503906 1.867188 4.070312 C 0.507812 4.726562 -0.273438 6.597656 0.675781 7.902344 C 1.511719 9.332031 3.332031 9.863281 4.894531 9.550781 C 7.523438 9.351562 10.125 9.898438 12.699219 10.332031 C 14.003906 10.761719 15.375 10.917969 16.699219 11.261719 C 18.101562 11.519531 19.703125 11.726562 20.914062 10.796875 C 22.640625 9.332031 24.378906 7.367188 24.625 5.3125 Z M 24.625 5.3125 " fill-opacity="1" fill-rule="nonzero"/></g><g clip-path="url(#ce24fc313b)"><path fill="#3b81f7" d="M 23.003906 11.472656 C 23.203125 10.011719 20.550781 10.546875 21.28125 11.851562 C 21.679688 12.605469 22.917969 12.296875 23.003906 11.472656 Z M 23.003906 11.472656 " fill-opacity="1" fill-rule="nonzero"/></g></g></g></g></svg>